<mxfile host="app.diagrams.net" modified="2022-06-21T05:20:30.641Z" agent="5.0 (Macintosh; Intel Mac OS X 10_15_7) AppleWebKit/537.36 (KHTML, like Gecko) Chrome/102.0.5005.124 Safari/537.36 Edg/102.0.1245.41" etag="c-Q0jv6FMy6RWacHM3yQ" version="20.0.1" type="github">
  <diagram name="Page-1" id="e7e014a7-5840-1c2e-5031-d8a46d1fe8dd">
    <mxGraphModel dx="946" dy="542" grid="1" gridSize="10" guides="1" tooltips="1" connect="1" arrows="1" fold="1" page="1" pageScale="1" pageWidth="1169" pageHeight="826" background="none" math="0" shadow="0">
      <root>
        <mxCell id="0" />
        <mxCell id="1" parent="0" />
        <mxCell id="2" value="用户" style="swimlane;whiteSpace=wrap" parent="1" vertex="1">
          <mxGeometry x="165" y="128" width="280" height="652" as="geometry" />
        </mxCell>
        <mxCell id="12" value="" style="edgeStyle=elbowEdgeStyle;elbow=horizontal;strokeColor=#FF0000;endArrow=open;endFill=1;rounded=0" parent="2" source="10" edge="1">
          <mxGeometry width="100" height="100" relative="1" as="geometry">
            <mxPoint x="160" y="290" as="sourcePoint" />
            <mxPoint x="60" y="135" as="targetPoint" />
            <Array as="points">
              <mxPoint x="30" y="250" />
            </Array>
          </mxGeometry>
        </mxCell>
        <mxCell id="ea94kt_kHYcBvmP7wfDY-41" value="输入提现账号" style="html=1;" vertex="1" parent="2">
          <mxGeometry x="80.5" y="60" width="110" height="50" as="geometry" />
        </mxCell>
        <mxCell id="ea94kt_kHYcBvmP7wfDY-47" value="提示余额不足" style="whiteSpace=wrap;html=1;fillColor=rgb(255, 255, 255);strokeColor=rgb(0, 0, 0);fontColor=rgb(0, 0, 0);" vertex="1" parent="2">
          <mxGeometry x="75.5" y="132" width="120" height="60" as="geometry" />
        </mxCell>
        <mxCell id="ea94kt_kHYcBvmP7wfDY-64" value="转账中" style="whiteSpace=wrap;html=1;fillColor=rgb(255, 255, 255);strokeColor=rgb(0, 0, 0);fontColor=rgb(0, 0, 0);" vertex="1" parent="2">
          <mxGeometry x="75.5" y="422" width="120" height="60" as="geometry" />
        </mxCell>
        <mxCell id="ea94kt_kHYcBvmP7wfDY-74" value="提示余额不足" style="whiteSpace=wrap;html=1;fillColor=rgb(255, 255, 255);strokeColor=rgb(0, 0, 0);fontColor=rgb(0, 0, 0);" vertex="1" parent="2">
          <mxGeometry x="75.5" y="272" width="120" height="60" as="geometry" />
        </mxCell>
        <mxCell id="ea94kt_kHYcBvmP7wfDY-83" value="用户查询" style="html=1;" vertex="1" parent="2">
          <mxGeometry x="80.5" y="582" width="110" height="50" as="geometry" />
        </mxCell>
        <mxCell id="3" value="app" style="swimlane;whiteSpace=wrap" parent="1" vertex="1">
          <mxGeometry x="445" y="128" width="280" height="652" as="geometry">
            <mxRectangle x="444.5" y="128" width="50" height="23" as="alternateBounds" />
          </mxGeometry>
        </mxCell>
        <mxCell id="ea94kt_kHYcBvmP7wfDY-44" value="读取商户渠道账户" style="html=1;" vertex="1" parent="3">
          <mxGeometry x="75.5" y="60" width="110" height="50" as="geometry" />
        </mxCell>
        <mxCell id="ea94kt_kHYcBvmP7wfDY-45" value="判断渠道余额" style="whiteSpace=wrap;html=1;fillColor=rgb(255, 255, 255);strokeColor=rgb(0, 0, 0);fontColor=rgb(0, 0, 0);" vertex="1" parent="3">
          <mxGeometry x="75.5" y="122" width="120" height="60" as="geometry" />
        </mxCell>
        <mxCell id="ea94kt_kHYcBvmP7wfDY-46" value="" style="edgeStyle=orthogonalEdgeStyle;rounded=0;orthogonalLoop=1;jettySize=auto;html=1;entryX=0.483;entryY=-0.033;entryDx=0;entryDy=0;entryPerimeter=0;" edge="1" parent="3" target="ea94kt_kHYcBvmP7wfDY-45">
          <mxGeometry relative="1" as="geometry">
            <mxPoint x="135.5" y="112" as="sourcePoint" />
          </mxGeometry>
        </mxCell>
        <mxCell id="ea94kt_kHYcBvmP7wfDY-50" value="读取渠道付款账户" style="whiteSpace=wrap;html=1;fillColor=rgb(255, 255, 255);strokeColor=rgb(0, 0, 0);fontColor=rgb(0, 0, 0);" vertex="1" parent="3">
          <mxGeometry x="75.5" y="192" width="120" height="60" as="geometry" />
        </mxCell>
        <mxCell id="ea94kt_kHYcBvmP7wfDY-51" value="" style="edgeStyle=orthogonalEdgeStyle;rounded=0;orthogonalLoop=1;jettySize=auto;html=1;" edge="1" parent="3" source="ea94kt_kHYcBvmP7wfDY-45" target="ea94kt_kHYcBvmP7wfDY-50">
          <mxGeometry relative="1" as="geometry" />
        </mxCell>
        <mxCell id="ea94kt_kHYcBvmP7wfDY-52" value="提取账户信息，并保存信息导数据库" style="whiteSpace=wrap;html=1;fillColor=rgb(255, 255, 255);strokeColor=rgb(0, 0, 0);fontColor=rgb(0, 0, 0);" vertex="1" parent="3">
          <mxGeometry x="75.5" y="342" width="120" height="60" as="geometry" />
        </mxCell>
        <mxCell id="ea94kt_kHYcBvmP7wfDY-59" value="修改订单状态支付中" style="whiteSpace=wrap;html=1;fillColor=rgb(255, 255, 255);strokeColor=rgb(0, 0, 0);fontColor=rgb(0, 0, 0);" vertex="1" parent="3">
          <mxGeometry x="74.5" y="422" width="120" height="60" as="geometry" />
        </mxCell>
        <mxCell id="ea94kt_kHYcBvmP7wfDY-67" value="修改状态，成功修改商户渠道账户余额，添加账户记录" style="whiteSpace=wrap;html=1;fillColor=rgb(255, 255, 255);strokeColor=rgb(0, 0, 0);fontColor=rgb(0, 0, 0);" vertex="1" parent="3">
          <mxGeometry x="74.5" y="502" width="120" height="60" as="geometry" />
        </mxCell>
        <mxCell id="ea94kt_kHYcBvmP7wfDY-72" value="" style="whiteSpace=wrap;html=1;fillColor=rgb(255, 255, 255);strokeColor=rgb(0, 0, 0);fontColor=rgb(0, 0, 0);" vertex="1" parent="3">
          <mxGeometry x="75.5" y="272" width="120" height="60" as="geometry" />
        </mxCell>
        <mxCell id="ea94kt_kHYcBvmP7wfDY-84" value="返回成功，修改状态，添加记录集" style="whiteSpace=wrap;html=1;fillColor=rgb(255, 255, 255);strokeColor=rgb(0, 0, 0);fontColor=rgb(0, 0, 0);" vertex="1" parent="3">
          <mxGeometry x="74.5" y="577" width="120" height="60" as="geometry" />
        </mxCell>
        <mxCell id="4" value="b2bi" style="swimlane;whiteSpace=wrap" parent="1" vertex="1">
          <mxGeometry x="724.5" y="128" width="280" height="652" as="geometry" />
        </mxCell>
        <mxCell id="ea94kt_kHYcBvmP7wfDY-54" value="调用转账接口" style="whiteSpace=wrap;html=1;fillColor=rgb(255, 255, 255);strokeColor=rgb(0, 0, 0);fontColor=rgb(0, 0, 0);" vertex="1" parent="4">
          <mxGeometry x="76.75" y="342" width="120" height="60" as="geometry" />
        </mxCell>
        <mxCell id="ea94kt_kHYcBvmP7wfDY-57" value="处理银行返回结果" style="whiteSpace=wrap;html=1;fillColor=rgb(255, 255, 255);strokeColor=rgb(0, 0, 0);fontColor=rgb(0, 0, 0);" vertex="1" parent="4">
          <mxGeometry x="76.75" y="422" width="120" height="60" as="geometry" />
        </mxCell>
        <mxCell id="ea94kt_kHYcBvmP7wfDY-58" value="" style="edgeStyle=orthogonalEdgeStyle;rounded=0;orthogonalLoop=1;jettySize=auto;html=1;" edge="1" parent="4" source="ea94kt_kHYcBvmP7wfDY-54" target="ea94kt_kHYcBvmP7wfDY-57">
          <mxGeometry relative="1" as="geometry" />
        </mxCell>
        <mxCell id="ea94kt_kHYcBvmP7wfDY-69" value="余额查询" style="whiteSpace=wrap;html=1;fillColor=rgb(255, 255, 255);strokeColor=rgb(0, 0, 0);fontColor=rgb(0, 0, 0);" vertex="1" parent="4">
          <mxGeometry x="76.75" y="192" width="120" height="60" as="geometry" />
        </mxCell>
        <mxCell id="ea94kt_kHYcBvmP7wfDY-86" value="" style="whiteSpace=wrap;html=1;fillColor=rgb(255, 255, 255);strokeColor=rgb(0, 0, 0);fontColor=rgb(0, 0, 0);" vertex="1" parent="4">
          <mxGeometry x="76.75" y="577" width="120" height="60" as="geometry" />
        </mxCell>
        <mxCell id="ea94kt_kHYcBvmP7wfDY-43" value="dispatch" style="html=1;verticalAlign=bottom;startArrow=oval;startFill=1;endArrow=block;startSize=8;rounded=0;exitX=1.018;exitY=0.48;exitDx=0;exitDy=0;exitPerimeter=0;" edge="1" parent="1" source="ea94kt_kHYcBvmP7wfDY-41">
          <mxGeometry width="60" relative="1" as="geometry">
            <mxPoint x="570" y="230" as="sourcePoint" />
            <mxPoint x="520" y="212" as="targetPoint" />
          </mxGeometry>
        </mxCell>
        <mxCell id="ea94kt_kHYcBvmP7wfDY-48" value="" style="edgeStyle=orthogonalEdgeStyle;rounded=0;orthogonalLoop=1;jettySize=auto;html=1;" edge="1" parent="1">
          <mxGeometry relative="1" as="geometry">
            <mxPoint x="510" y="290" as="sourcePoint" />
            <mxPoint x="360" y="290" as="targetPoint" />
          </mxGeometry>
        </mxCell>
        <mxCell id="ea94kt_kHYcBvmP7wfDY-49" value="余额不足" style="edgeLabel;html=1;align=center;verticalAlign=middle;resizable=0;points=[];" vertex="1" connectable="0" parent="ea94kt_kHYcBvmP7wfDY-48">
          <mxGeometry x="-0.0267" y="3" relative="1" as="geometry">
            <mxPoint as="offset" />
          </mxGeometry>
        </mxCell>
        <mxCell id="ea94kt_kHYcBvmP7wfDY-55" value="" style="edgeStyle=orthogonalEdgeStyle;rounded=0;orthogonalLoop=1;jettySize=auto;html=1;exitX=1;exitY=0.483;exitDx=0;exitDy=0;exitPerimeter=0;" edge="1" parent="1" source="ea94kt_kHYcBvmP7wfDY-52" target="ea94kt_kHYcBvmP7wfDY-54">
          <mxGeometry relative="1" as="geometry">
            <mxPoint x="575" y="430" as="sourcePoint" />
            <mxPoint x="800" y="460" as="targetPoint" />
            <Array as="points">
              <mxPoint x="635" y="499" />
              <mxPoint x="635" y="500" />
            </Array>
          </mxGeometry>
        </mxCell>
        <mxCell id="ea94kt_kHYcBvmP7wfDY-56" value="转账接口" style="edgeLabel;html=1;align=center;verticalAlign=middle;resizable=0;points=[];" vertex="1" connectable="0" parent="ea94kt_kHYcBvmP7wfDY-55">
          <mxGeometry x="-0.0674" y="2" relative="1" as="geometry">
            <mxPoint as="offset" />
          </mxGeometry>
        </mxCell>
        <mxCell id="ea94kt_kHYcBvmP7wfDY-60" value="" style="edgeStyle=orthogonalEdgeStyle;rounded=0;orthogonalLoop=1;jettySize=auto;html=1;" edge="1" parent="1" source="ea94kt_kHYcBvmP7wfDY-57" target="ea94kt_kHYcBvmP7wfDY-59">
          <mxGeometry relative="1" as="geometry">
            <mxPoint x="640" y="550" as="targetPoint" />
          </mxGeometry>
        </mxCell>
        <mxCell id="ea94kt_kHYcBvmP7wfDY-61" value="Text" style="edgeLabel;html=1;align=center;verticalAlign=middle;resizable=0;points=[];" vertex="1" connectable="0" parent="ea94kt_kHYcBvmP7wfDY-60">
          <mxGeometry x="0.7961" relative="1" as="geometry">
            <mxPoint x="-1" y="30" as="offset" />
          </mxGeometry>
        </mxCell>
        <mxCell id="ea94kt_kHYcBvmP7wfDY-62" value="j接口返回成功" style="edgeLabel;html=1;align=center;verticalAlign=middle;resizable=0;points=[];" vertex="1" connectable="0" parent="ea94kt_kHYcBvmP7wfDY-60">
          <mxGeometry x="0.0439" y="-2" relative="1" as="geometry">
            <mxPoint as="offset" />
          </mxGeometry>
        </mxCell>
        <mxCell id="ea94kt_kHYcBvmP7wfDY-65" value="" style="edgeStyle=orthogonalEdgeStyle;rounded=0;orthogonalLoop=1;jettySize=auto;html=1;exitX=-0.042;exitY=0.492;exitDx=0;exitDy=0;exitPerimeter=0;entryX=1.025;entryY=0.5;entryDx=0;entryDy=0;entryPerimeter=0;" edge="1" parent="1" source="ea94kt_kHYcBvmP7wfDY-59" target="ea94kt_kHYcBvmP7wfDY-64">
          <mxGeometry relative="1" as="geometry">
            <mxPoint x="370" y="550" as="targetPoint" />
          </mxGeometry>
        </mxCell>
        <mxCell id="ea94kt_kHYcBvmP7wfDY-68" value="" style="edgeStyle=orthogonalEdgeStyle;rounded=0;orthogonalLoop=1;jettySize=auto;html=1;entryX=1.017;entryY=0.517;entryDx=0;entryDy=0;entryPerimeter=0;" edge="1" parent="1" source="ea94kt_kHYcBvmP7wfDY-66" target="ea94kt_kHYcBvmP7wfDY-67">
          <mxGeometry relative="1" as="geometry">
            <mxPoint x="650" y="630" as="targetPoint" />
          </mxGeometry>
        </mxCell>
        <mxCell id="ea94kt_kHYcBvmP7wfDY-66" value="转账成功通知" style="ellipse;whiteSpace=wrap;html=1;" vertex="1" parent="1">
          <mxGeometry x="807.75" y="630" width="120" height="60" as="geometry" />
        </mxCell>
        <mxCell id="ea94kt_kHYcBvmP7wfDY-70" value="" style="edgeStyle=orthogonalEdgeStyle;rounded=0;orthogonalLoop=1;jettySize=auto;html=1;" edge="1" parent="1" source="ea94kt_kHYcBvmP7wfDY-50" target="ea94kt_kHYcBvmP7wfDY-69">
          <mxGeometry relative="1" as="geometry" />
        </mxCell>
        <mxCell id="ea94kt_kHYcBvmP7wfDY-71" value="查询企业账户余额" style="edgeLabel;html=1;align=center;verticalAlign=middle;resizable=0;points=[];" vertex="1" connectable="0" parent="ea94kt_kHYcBvmP7wfDY-70">
          <mxGeometry x="-0.0756" y="1" relative="1" as="geometry">
            <mxPoint as="offset" />
          </mxGeometry>
        </mxCell>
        <mxCell id="ea94kt_kHYcBvmP7wfDY-73" value="" style="edgeStyle=orthogonalEdgeStyle;rounded=0;orthogonalLoop=1;jettySize=auto;html=1;" edge="1" parent="1" source="ea94kt_kHYcBvmP7wfDY-69" target="ea94kt_kHYcBvmP7wfDY-72">
          <mxGeometry relative="1" as="geometry" />
        </mxCell>
        <mxCell id="ea94kt_kHYcBvmP7wfDY-75" value="" style="edgeStyle=orthogonalEdgeStyle;rounded=0;orthogonalLoop=1;jettySize=auto;html=1;" edge="1" parent="1" source="ea94kt_kHYcBvmP7wfDY-72" target="ea94kt_kHYcBvmP7wfDY-74">
          <mxGeometry relative="1" as="geometry">
            <Array as="points">
              <mxPoint x="340" y="420" />
              <mxPoint x="340" y="420" />
            </Array>
          </mxGeometry>
        </mxCell>
        <mxCell id="ea94kt_kHYcBvmP7wfDY-85" value="" style="edgeStyle=orthogonalEdgeStyle;rounded=0;orthogonalLoop=1;jettySize=auto;html=1;" edge="1" parent="1" source="ea94kt_kHYcBvmP7wfDY-83">
          <mxGeometry relative="1" as="geometry">
            <mxPoint x="520" y="735" as="targetPoint" />
          </mxGeometry>
        </mxCell>
        <mxCell id="ea94kt_kHYcBvmP7wfDY-87" value="" style="edgeStyle=orthogonalEdgeStyle;rounded=0;orthogonalLoop=1;jettySize=auto;html=1;exitX=1.004;exitY=0.5;exitDx=0;exitDy=0;exitPerimeter=0;" edge="1" parent="1" source="ea94kt_kHYcBvmP7wfDY-84">
          <mxGeometry relative="1" as="geometry">
            <mxPoint x="800" y="735" as="targetPoint" />
            <Array as="points">
              <mxPoint x="790" y="735" />
              <mxPoint x="790" y="735" />
            </Array>
          </mxGeometry>
        </mxCell>
      </root>
    </mxGraphModel>
  </diagram>
</mxfile>
